<svg width="264" height="732" viewBox="0 0 264 732" fill="none" xmlns="http://www.w3.org/2000/svg">
<rect y="731.523" width="731.523" height="172.036" rx="86.0178" transform="rotate(-90 0 731.523)" fill="black"/>
<ellipse cx="168.756" cy="353.619" rx="94.7564" ry="87.6193" fill="#E5E5E5"/>
<ellipse cx="172.228" cy="353.884" rx="84.2279" ry="77.8838" fill="black"/>
<path fill-rule="evenodd" clip-rule="evenodd" d="M83.2321 80.67C84.6958 79.5924 86.5603 79 88.4885 79C90.4167 79 92.2812 79.5924 93.7449 80.67L119.324 99.4901L129.365 106.387C129.779 106.672 130.124 107.024 130.379 107.422C130.635 107.821 130.797 108.259 130.855 108.712C130.914 109.164 130.868 109.622 130.72 110.06C130.572 110.497 130.326 110.905 129.995 111.26C129.663 111.616 129.253 111.912 128.789 112.131C128.324 112.351 127.814 112.49 127.287 112.54C126.76 112.59 126.226 112.551 125.717 112.424C125.208 112.297 124.732 112.086 124.318 111.801L120.786 109.375V136.822C120.786 138.66 119.935 140.423 118.421 141.723C116.907 143.023 114.853 143.754 112.711 143.754H96.5628V126.424C96.5628 124.586 95.7121 122.822 94.1979 121.522C92.6837 120.222 90.6299 119.492 88.4885 119.492C86.3471 119.492 84.2933 120.222 82.7791 121.522C81.2649 122.822 80.4142 124.586 80.4142 126.424V143.754H64.2656C62.1241 143.754 60.0704 143.023 58.5562 141.723C57.0419 140.423 56.1913 138.66 56.1913 136.822V109.372L52.6588 111.798C52.2475 112.099 51.7699 112.327 51.2543 112.467C50.7387 112.607 50.1955 112.656 49.6572 112.613C49.1188 112.569 48.5961 112.433 48.1202 112.212C47.6443 111.992 47.2248 111.692 46.8866 111.329C46.5485 110.967 46.2986 110.55 46.1517 110.103C46.0049 109.656 45.9641 109.189 46.0317 108.728C46.0994 108.268 46.2742 107.823 46.5457 107.422C46.8172 107.02 47.1799 106.67 47.6123 106.391L57.6527 99.4936L83.2321 80.67Z" fill="white"/>
<path d="M201.926 324.32C201.515 323.941 201.035 323.671 200.521 323.531C200.007 323.391 199.472 323.385 198.955 323.512L171.44 330.584L143.924 323.431C143.399 323.296 142.855 323.299 142.331 323.441C141.808 323.582 141.319 323.858 140.903 324.248C140.487 324.637 140.154 325.13 139.93 325.689C139.706 326.248 139.596 326.858 139.609 327.472V376.772C139.589 377.706 139.853 378.619 140.356 379.356C140.859 380.093 141.57 380.608 142.368 380.813L170.662 388.087H171.44H172.218L200.511 380.813C201.309 380.608 202.02 380.093 202.523 379.356C203.026 378.619 203.29 377.706 203.27 376.772V327.472C203.268 326.865 203.145 326.267 202.913 325.721C202.68 325.175 202.343 324.697 201.926 324.32ZM146.683 332.523L167.903 337.979V378.994L146.683 373.539V332.523ZM196.197 373.539L174.976 378.994V337.979L196.197 332.523V373.539Z" fill="#9C8C76"/>
<path d="M93.7132 563.684C83.8663 563.684 75.8097 572.764 75.8097 583.951C75.8097 595.139 83.8663 604.219 93.7132 604.219C103.56 604.219 111.617 595.139 111.617 583.951C111.617 572.764 103.56 563.684 93.7132 563.684ZM75.0041 604.219C65.5152 604.625 57.9062 611.678 57.9062 620.433V628.54H129.52V620.433C129.52 611.678 122.001 604.625 112.422 604.219C107.588 609.164 100.964 612.326 93.7132 612.326C86.4623 612.326 79.838 609.164 75.0041 604.219Z" fill="white"/>
</svg>
