<svg width="264" height="732" viewBox="0 0 264 732" fill="none" xmlns="http://www.w3.org/2000/svg">
<rect y="731.523" width="731.523" height="172.036" rx="86.0178" transform="rotate(-90 0 731.523)" fill="#121111"/>
<ellipse cx="168.756" cy="568.619" rx="94.7564" ry="87.6193" fill="#E5E5E5"/>
<ellipse cx="172.228" cy="568.384" rx="84.2279" ry="78.3838" fill="black"/>
<path fill-rule="evenodd" clip-rule="evenodd" d="M83.2321 80.67C84.6958 79.5924 86.5603 79 88.4885 79C90.4167 79 92.2812 79.5924 93.7449 80.67L119.324 99.4901L129.365 106.387C129.779 106.672 130.124 107.024 130.379 107.422C130.635 107.821 130.797 108.259 130.855 108.712C130.914 109.164 130.868 109.622 130.72 110.06C130.572 110.497 130.326 110.905 129.995 111.26C129.663 111.616 129.253 111.912 128.789 112.131C128.324 112.351 127.814 112.49 127.287 112.54C126.76 112.59 126.226 112.551 125.717 112.424C125.208 112.297 124.732 112.086 124.318 111.801L120.786 109.375V136.822C120.786 138.66 119.935 140.423 118.421 141.723C116.907 143.023 114.853 143.754 112.711 143.754H96.5628V126.424C96.5628 124.586 95.7121 122.822 94.1979 121.522C92.6837 120.222 90.6299 119.492 88.4885 119.492C86.3471 119.492 84.2933 120.222 82.7791 121.522C81.2649 122.822 80.4142 124.586 80.4142 126.424V143.754H64.2656C62.1241 143.754 60.0704 143.023 58.5562 141.723C57.0419 140.423 56.1913 138.66 56.1913 136.822V109.372L52.6588 111.798C52.2475 112.099 51.7699 112.327 51.2543 112.467C50.7387 112.607 50.1955 112.656 49.6572 112.613C49.1188 112.569 48.5961 112.433 48.1202 112.212C47.6443 111.992 47.2248 111.692 46.8866 111.329C46.5485 110.967 46.2986 110.55 46.1517 110.103C46.0049 109.656 45.9641 109.189 46.0317 108.728C46.0994 108.268 46.2742 107.823 46.5457 107.422C46.8172 107.02 47.1799 106.67 47.6123 106.391L57.6527 99.4936L83.2321 80.67Z" fill="white"/>
<path d="M116.926 319.32C116.515 318.941 116.035 318.671 115.521 318.531C115.007 318.391 114.472 318.385 113.955 318.512L86.4397 325.584L58.9242 318.431C58.3995 318.296 57.8546 318.299 57.3311 318.441C56.8075 318.582 56.3191 318.858 55.9031 319.248C55.487 319.637 55.1542 320.13 54.9301 320.689C54.7059 321.248 54.5962 321.858 54.6095 322.472V371.772C54.5895 372.706 54.8534 373.619 55.3564 374.356C55.8594 375.093 56.5703 375.608 57.3681 375.813L85.6617 383.087H86.4397H87.2178L115.511 375.813C116.309 375.608 117.02 375.093 117.523 374.356C118.026 373.619 118.29 372.706 118.27 371.772V322.472C118.268 321.865 118.145 321.267 117.913 320.721C117.68 320.175 117.343 319.697 116.926 319.32ZM61.6829 327.523L82.903 332.979V373.994L61.6829 368.539V327.523ZM111.197 368.539L89.9764 373.994V332.979L111.197 327.523V368.539Z" fill="white"/>
<path d="M171.807 536C161.96 536 153.903 545.08 153.903 556.268C153.903 567.456 161.96 576.536 171.807 576.536C181.654 576.536 189.71 567.456 189.71 556.268C189.71 545.08 181.654 536 171.807 536ZM153.098 576.536C143.609 576.941 136 583.994 136 592.75V600.857H207.614V592.75C207.614 583.994 200.094 576.941 190.516 576.536C185.682 581.481 179.058 584.643 171.807 584.643C164.556 584.643 157.932 581.481 153.098 576.536Z" fill="#9C8C76"/>
</svg>
