<svg width="267" height="732" viewBox="0 0 267 732" fill="none" xmlns="http://www.w3.org/2000/svg">
<rect y="731.523" width="731.523" height="172.036" rx="86.0178" transform="rotate(-90 0 731.523)" fill="black"/>
<ellipse cx="172.036" cy="151.289" rx="94.7564" ry="87.6193" fill="#E5E5E5"/>
<ellipse cx="172.036" cy="151.289" rx="84.2279" ry="77.8838" fill="black"/>
<path fill-rule="evenodd" clip-rule="evenodd" d="M166.733 120.637C168.197 119.559 170.061 118.967 171.989 118.967C173.918 118.967 175.782 119.559 177.246 120.637L202.825 139.457L212.866 146.354C213.28 146.639 213.624 146.99 213.88 147.389C214.136 147.788 214.298 148.226 214.356 148.679C214.415 149.131 214.369 149.589 214.221 150.027C214.073 150.464 213.827 150.872 213.495 151.227C213.164 151.583 212.754 151.879 212.29 152.098C211.825 152.318 211.315 152.457 210.788 152.507C210.261 152.557 209.727 152.518 209.218 152.391C208.709 152.264 208.233 152.052 207.819 151.768L204.287 149.342V176.789C204.287 178.627 203.436 180.39 201.922 181.69C200.408 182.99 198.354 183.721 196.212 183.721H180.064V166.391C180.064 164.552 179.213 162.789 177.699 161.489C176.185 160.189 174.131 159.459 171.989 159.459C169.848 159.459 167.794 160.189 166.28 161.489C164.766 162.789 163.915 164.552 163.915 166.391V183.721H147.767C145.625 183.721 143.571 182.99 142.057 181.69C140.543 180.39 139.692 178.627 139.692 176.789V149.338L136.16 151.765C135.748 152.066 135.271 152.293 134.755 152.433C134.24 152.573 133.697 152.623 133.158 152.579C132.62 152.536 132.097 152.399 131.621 152.179C131.145 151.959 130.726 151.658 130.388 151.296C130.049 150.934 129.8 150.517 129.653 150.07C129.506 149.623 129.465 149.156 129.533 148.695C129.6 148.234 129.775 147.79 130.047 147.389C130.318 146.987 130.681 146.636 131.113 146.358L141.154 139.46L166.733 120.637Z" fill="#9C8C76"/>
<path d="M124.094 335.645C123.683 335.265 123.203 334.995 122.689 334.855C122.175 334.715 121.64 334.709 121.123 334.836L93.6077 341.908L66.0922 334.756C65.5674 334.62 65.0226 334.623 64.499 334.765C63.9755 334.906 63.4871 335.182 63.0711 335.572C62.655 335.962 62.3222 336.455 62.098 337.013C61.8739 337.572 61.7642 338.182 61.7774 338.796V388.096C61.7575 389.03 62.0214 389.943 62.5244 390.68C63.0274 391.417 63.7382 391.932 64.5361 392.137L92.8296 399.411H93.6077H94.3858L122.679 392.137C123.477 391.932 124.188 391.417 124.691 390.68C125.194 389.943 125.458 389.03 125.438 388.096V338.796C125.436 338.19 125.313 337.591 125.081 337.045C124.848 336.5 124.511 336.021 124.094 335.645ZM68.8508 343.848L90.071 349.303V390.319L68.8508 384.863V343.848ZM118.365 384.863L97.1444 390.319V349.303L118.365 343.848V384.863Z" fill="white"/>
<path d="M93.7132 563.684C83.8663 563.684 75.8097 572.764 75.8097 583.951C75.8097 595.139 83.8663 604.219 93.7132 604.219C103.56 604.219 111.617 595.139 111.617 583.951C111.617 572.764 103.56 563.684 93.7132 563.684ZM75.0041 604.219C65.5152 604.625 57.9062 611.678 57.9062 620.433V628.54H129.52V620.433C129.52 611.678 122.001 604.625 112.422 604.219C107.588 609.164 100.964 612.326 93.7132 612.326C86.4623 612.326 79.838 609.164 75.0041 604.219Z" fill="white"/>
</svg>
