<svg width="35" height="24" viewBox="0 0 35 24" fill="none" xmlns="http://www.w3.org/2000/svg">
<path fill-rule="evenodd" clip-rule="evenodd" d="M3.50879 5.63951C3.50879 4.04314 5.40136 2.74902 7.73596 2.74902H27.4627C29.7973 2.74902 31.6899 4.04314 31.6899 5.63951V19.1284C31.6899 20.7248 29.7973 22.0189 27.4627 22.0189H7.73596C5.40136 22.0189 3.50879 20.7248 3.50879 19.1284V5.63951Z" fill="black"/>
<path fill-rule="evenodd" clip-rule="evenodd" d="M24.5238 8.81255C25.074 9.18882 25.074 9.79887 24.5238 10.1751L15.7776 16.4378C15.2273 16.8141 14.3352 16.8141 13.7849 16.4378L9.55772 13.5474C9.00745 13.1711 9.00745 12.561 9.55772 12.1848C10.108 11.8085 11.0002 11.8085 11.5504 12.1848L14.7812 14.394L22.531 8.81255C23.0813 8.43628 23.9735 8.43628 24.5238 8.81255Z" fill="white"/>
</svg>
