<svg width="64" height="65" viewBox="0 0 64 65" fill="none" xmlns="http://www.w3.org/2000/svg">
<path d="M62.3177 0.988288C61.9068 0.608525 61.4266 0.338801 60.9125 0.198941C60.3984 0.0590807 59.8634 0.0526415 59.3468 0.180098L31.8313 7.25177L4.31584 0.0992787C3.79108 -0.0361362 3.2462 -0.0329836 2.72267 0.108495C2.19914 0.249974 1.71075 0.526049 1.29469 0.915712C0.87862 1.30537 0.545838 1.79835 0.321669 2.35713C0.0974993 2.9159 -0.0121495 3.52574 0.00106766 4.14023V53.4399C-0.0189134 54.374 0.245046 55.2871 0.748015 56.0239C1.25098 56.7607 1.96188 57.2755 2.75969 57.4808L31.0533 64.7545H31.8313H32.6094L60.903 57.4808C61.7008 57.2755 62.4117 56.7607 62.9147 56.0239C63.4176 55.2871 63.6816 54.374 63.6616 53.4399V4.14023C63.6592 3.53326 63.5371 2.93472 63.3044 2.38905C63.0717 1.84338 62.7345 1.36461 62.3177 0.988288ZM7.07446 9.19142L28.2946 14.6467V55.6624L7.07446 50.2071V9.19142ZM56.5882 50.2071L35.368 55.6624V14.6467L56.5882 9.19142V50.2071Z" fill="#9C8C76"/>
</svg>
